<svg version="1.1" xmlns="http://www.w3.org/2000/svg" viewBox="0 0 240 48">
  <path d="M0 0h54l.063 16.938.027 5.35.008 4.177.015 2.209c0 1.776-.05 3.551-.113 5.326-1 1-1 1-3.132 1.12l-2.847-.006h-3.215l-3.497-.016-3.56-.005c-3.771-.005-7.541-.018-11.312-.03-2.548-.006-5.097-.01-7.646-.014C12.527 35.039 6.264 35.019 0 35V0z" fill="#D0262A"/>
  <path d="M165.188-.313l3.158-.087C174.539-.452 178.33-.23 183 4c1.718 3.437 1.388 7.234 1 11-1.375 2.563-1.375 2.563-3 4h-2a939071482.681 939071482.681 0 013.809 7.715c.996 2.19.996 2.19 2.191 3.285l.076-2.646c.095-3.23.194-6.46.296-9.69.044-1.399.085-2.799.125-4.198.058-2.009.122-4.017.187-6.025l.11-3.665C186 1 186 1 187 0c2.67-.141 5.324-.042 8 0 .167 4.681.328 9.363.482 14.044.054 1.594.109 3.188.166 4.781.082 2.286.157 4.572.23 6.859l.083 2.171c.052 1.714.05 3.43.039 5.145-1 1-1 1-2.858 1.114l-2.396-.016-2.588-.01-2.72-.026-2.733-.013c-2.235-.012-4.47-.028-6.705-.049l-2.905-5.194c-1.186-2.044-1.186-2.044-3.345-4.619C168 22 168 22 168 20h-6v14h-9a5235.2 5235.2 0 01-.055-14.044c-.005-1.594-.012-3.188-.02-4.781-.013-2.287-.018-4.573-.023-6.859l-.015-2.171c0-1.716.051-3.43.113-5.145 2.47-2.47 8.875-1.282 12.187-1.313z" fill="#124173"/>
  <path d="M120 0c4.062-.116 8.124-.187 12.188-.25l3.486-.102 3.369-.039 3.094-.063C145.75.119 147.39 1.496 150 4c1.39 2.78 1.185 4.919 1 8-1 2.375-1 2.375-2 4l1.5 1.563c2.062 3.35 1.908 5.56 1.5 9.437-1.335 3.161-2.17 4.587-5.257 6.122-2.974.952-5.33 1.122-8.446 1.108l-3.219-.005-3.328-.038-3.375-.001C120.14 34.14 120.14 34.14 119 33c-.1-2.268-.13-4.539-.133-6.809l-.003-2.066c0-1.445.001-2.89.006-4.335.005-2.215 0-4.429-.007-6.644 0-1.401.002-2.803.004-4.205l.004-3.884C119 2 119 2 120 0z" fill="#154375"/>
  <path d="M0 0h26v35H0V0z" fill="#07376B"/>
  <path d="M57 0h29v7H64v6l15-1v8H64v6h23v7c-1 1-1 1-3.776 1.114l-3.665-.016-3.561-.008-4.56-.028L57 34V0z" fill="#0C3D71"/>
  <path d="M96.832 38.844c2.186.256 2.186.256 4.367-.297 3.938-.77 7.797-.771 11.801-.797l2.406-.063c4.73-.031 7.697.327 11.594 3.313l1-3 2.125.563c3.23.491 5.685.061 8.875-.563 16.375 0 16.375 0 23 1 .125 6.75.125 6.75-1 9H88c-1-2-1-2-.188-5.563 1.893-5.476 3.743-4.491 9.02-3.593zM102 42v4l6-1v-2l-6-1zm18 0l1 3zm16 0l-1 3 3 1c2.19-1.372 2.19-1.372 4-3l-6-1zm15 0l1 3z" fill="#DB514C"/>
  <path d="M199.96-.114l3.919.016 2.08.005c2.202.005 4.403.018 6.603.03A4240.961 4240.961 0 01228 0v8h-11v26h-9V8h-12c-.042-2.333-.04-4.667 0-7 1-1 1-1 3.96-1.114z" fill="#114174"/>
  <path d="M90.848-.098L97 0c1.046 3.138 1.042 5.05.879 8.324l-.147 3.115-.17 3.248-.158 3.284c-.13 2.676-.266 5.353-.404 8.029h21v8H88c-.023-4.681-.043-9.363-.055-14.044-.005-1.594-.012-3.188-.02-4.781-.013-2.287-.018-4.573-.023-6.859l-.015-2.171c0-1.716.051-3.43.113-5.145 1-1 1-1 2.848-1.098z" fill="#0F3F72"/>
  <path d="M13 38v8l3-1c1.23-3.512 1.23-3.512 2-7l1.697.108c2.538.157 5.077.306 7.616.455l2.67.17 2.568.146 2.364.143c2.282.082 2.282.082 5.085-1.022 2.061-.069 4.125-.085 6.188-.063l3.292.028L52 38v4h-4l1 6h-5v-6h-2v6H0v-9c4.386-.702 8.558-1.108 13-1zm-6 4l1 3z" fill="#D73D3B"/>
  <path d="M27 7l7.813-.188 2.448-.082c5.215-.061 5.215-.061 7.778 1.56 1.591 2.832.469 5.608-.039 8.71l2 2c.25 3 .25 3 0 6-2 2-2 2-3.88 2.227-.743-.01-1.487-.02-2.253-.032l-2.2-.015-2.792-.055L27 27V7z" fill="#F6D1D3"/>
  <path d="M187 0h8c.025 4.378.043 8.756.055 13.135.005 1.49.012 2.98.02 4.47.013 2.14.018 4.279.023 6.418l.016 3.904C195 31 195 31 194 33h-6c-1.487-2.974-1.111-5.663-1.098-8.977l.005-2.076c.005-2.19.018-4.381.03-6.572.006-1.484.01-2.969.014-4.453.011-3.64.028-7.281.049-10.922z" fill="#083B6F"/>
  <path d="M56 38l2 1v7l3-1 1-6c5.016-1.018 9.786-1.119 14.875-1.063l2.375.014c1.917.012 3.833.03 5.75.049l-1 7h2v3H75l-1-2h-4v2H53v-9l3-1z" fill="#D84341"/>
  <path d="M202 38v8l6-1v-3h-3v-4c12.93-.214 12.93-.214 19 1 2 3 2 3 2 6h3v3h-15v-6h-2l1 6h-15v-9c2-1 2-1 4-1z" fill="#D53434"/>
  <path d="M164 38c2.125-.054 4.25-.093 6.375-.125l3.586-.07C177 38 177 38 179 40l2-2c2.82-.195 2.82-.195 6.125-.125l3.32.055L193 38v4h-3v6h-5v-5h-2l-2 5c-2.375.188-2.375.188-5 0l-2-3-5 2v1h-5V38z" fill="#DC5A53"/>
  <path d="M8 7h17v20H7v-4h14v-5h-9v-3h9v-5H8V7z" fill="#C9D4DF"/>
  <path d="M13 38v8l3-1c1.23-3.512 1.23-3.512 2-7l7 1-1.938.875c-2.214.953-2.214.953-3.062 3.125h6l1-2c.043 2 .04 4 0 6-1 1-1 1-3.5 1.114l-3.285-.016-3.545-.01-3.733-.026-3.744-.013C6.13 48.037 3.064 48.02 0 48v-9c4.386-.702 8.558-1.108 13-1zm-6 4l1 3z" fill="#DB5351"/>
  <path d="M128 38l2.125.563c3.23.491 5.685.061 8.875-.563 3 0 3 0 5 1l-1 9c-2.606.135-5.205.234-7.813.313l-2.236.126c-2.158.05-2.158.05-5.951-.439-2.012-2.52-2.012-2.52-3-5h2l2-5zm8 4l-1 3 3 1c2.19-1.372 2.19-1.372 4-3l-6-1z" fill="#DF6860"/>
  <path d="M127 19c2.625-.054 5.25-.094 7.875-.125l2.262-.05c1.955-.018 3.91.072 5.863.175l2 2c-.556 4.556-.556 4.556-2 6-2.697.073-5.367.092-8.063.063l-2.298-.014c-1.88-.012-3.76-.03-5.639-.049v-8z" fill="#EDF1F4"/>
  <path d="M126 7h17l1 5c-2 2-2 2-5.695 2.195a329.638 329.638 0 01-4.43-.07l-2.285-.027c-1.864-.024-3.727-.06-5.59-.098V7z" fill="#E1E7ED"/>
  <path d="M112 38l4.75-.125 2.672-.07c2.692.204 4.277.83 6.578 2.195l-1 8h-13V38zm8 4l1 3z" fill="#D4312F"/>
  <path d="M161 7c2.48-.027 4.958-.047 7.438-.063l2.142-.025c1.807-.009 3.614.036 5.42.088 1 1 1 1 1.125 3.5C177 13 177 13 176 14c-2.53.073-5.033.092-7.563.063l-2.154-.014c-1.76-.012-3.522-.03-5.283-.049V7z" fill="#F6F7F9"/>
  <path d="M31.25 38.938l3.266.027L37 39c-1.625 6.75-1.625 6.75-5 9-3.188.125-3.188.125-6 0v-5h-6l1-3c3.297-1.348 6.735-1.1 10.25-1.063z" fill="#D63939"/>
  <path d="M182 38h11v4h-3v6h-5v-5h-2l-2 5h-4v-3l2-1a134.078 134.078 0 003-6z" fill="#DB584D"/>
  <path d="M233.848-.098L240 0c.293 6.055.293 6.055 0 8-3 2-3 2-5.563 1.813C232 9 232 9 230 6c.706-5.932.706-5.932 3.848-6.098z" fill="#4D6F96"/>
  <path d="M186 1h1l1 32h6l1-2v3h-19l-1-4h2v3h7l-1-4 2 1 1-29z" fill="#6780A7"/>
  <path d="M225 40l1 5h3v3l-5-1v-3l-2 2c-2.625.125-2.625.125-5 0v-6c3.053-.981 4.947-.981 8 0z" fill="#DF6662"/>
  <path d="M112 39v9h-8c.313-1.938.313-1.938 1-4l3-1-4-1 2-1-1-2c4.75-1.125 4.75-1.125 7 0z" fill="#E1746B"/>
  <path d="M98 39l-1 5-2.938-.563L91 43l-1 1h4v2l-6 2c-1-2-1-2-.188-5.563C89.843 36.56 92.498 38.084 98 39z" fill="#DC5751"/>
  <path d="M31 18h11v5H31v-5z" fill="#D7393E"/>
  <path d="M18 38c2.34.287 4.674.62 7 1l-1.938.875c-2.214.953-2.214.953-3.062 3.125h6l1-2c.043 2 .04 4 0 6-1 1-1 1-3.563 1.063L21 48l4-4h-5v3l-4-1c.875-6.875.875-6.875 2-8z" fill="#D63736"/>
  <path d="M0 39h8v1H2v3h5l1 5H0v-9z" fill="#D4302F"/>
  <path d="M202 38v8l4-1 1 3h-9v-9c2-1 2-1 4-1z" fill="#D53434"/>
  <path d="M215 39h6l-4 1v6c2.437-.27 2.437-.27 5-1l2-3c1.125 3.75 1.125 3.75 0 6h-10l1-9z" fill="#D3292A"/>
  <path d="M120 38l6 2c-3.75 2-3.75 2-6 2l-1 4h-5v-6h6v-2z" fill="#D8453F"/>
  <path d="M56 38l2 1v7h4v2h-9v-9l3-1z" fill="#D63C38"/>
  <path d="M143 39h7l-1.938.875c-2.214.953-2.214.953-3.062 3.125h5l-1 2 2 1v2h-8v-9z" fill="#D52E31"/>
  <path d="M128 38l3 1v9c-2.375-.25-2.375-.25-5-1-1.313-2.063-1.313-2.063-2-4h2l2-5z" fill="#DA4948"/>
  <path d="M31 11h11l-1 4H31v-4z" fill="#D6353B"/>
  <path d="M193 38v4h-3v6h-3v-8l-3-1c6.75-1 6.75-1 9-1z" fill="#D73F3B"/>
  <path d="M52 38v4h-4l1 6h-4l1-8-4-1c6.625-1 6.625-1 10-1z" fill="#D63937"/>
  <path d="M231 1c2.875-.125 2.875-.125 6 0l2 2c-.375 2.125-.375 2.125-1 4l-4 1V6h-2l-1-5z" fill="#9EB1C6"/>
  <path d="M164 38l7 1-4 1v3h5v1h-5v4h-3V38z" fill="#D53431"/>
  <path d="M32 10h11l2 8h-2l-1 4v-4H32v-1l9-1 1-5H32v-1z" fill="#F2C1C2"/>
  <path d="M134 40l2 1-2 4h8v3h-8v-2h-2c.875-4.875.875-4.875 2-6z" fill="#D73A3A"/>
  <path d="M118 26v7h-2v-5H96v-1l9.875-.5 2.84-.145 2.715-.136 2.507-.127A91.412 91.412 0 01118 26z" fill="#113F72"/>
  <path d="M158 38v2l2 1-1 3h-5l-1-5c2-1 2-1 5-1z" fill="#D63737"/>
  <path d="M90 41l1 2h8c0 2 0 2-1.125 3.625C95.241 48.557 93.181 48.212 90 48l-1-2h5v-2h-4v-3z" fill="#D42D30"/>
  <path d="M41 38l5 2c.125 2.875.125 2.875 0 6l-2 2v-6h-2v6h-1V38z" fill="#DE635A"/>
  <path d="M110 38l2 1v9l-4-1c.875-7.875.875-7.875 2-9z" fill="#DD5B5A"/>
  <path d="M83 38h2l-1 7h2l-1 3v-2l-4-1 1-1-4-1v-2h5v-3z" fill="#DF6D62"/>
  <path d="M7 38h2v10c-2-3-2-3-2-5H2v-3l5-1v-1z" fill="#D94E43"/>
  <path d="M146 15c3.161 1.37 3.993 1.99 6 5 .25 3.563.25 3.563 0 7l-2 2-.367-2.371-.508-3.067-.492-3.058L148 18l-2-1v-2z" fill="#375D8A"/>
  <path d="M100 42l2 1v2l4 2c-3.215 1.607-6.436 1.057-10 1l1-3h3v-3z" fill="#DA4F4C"/>
  <path d="M217 41h5v5h-5v-5z" fill="#F9E3E3"/>
  <path d="M123 40l3 1-1 6h-4c-.125-2.375-.125-2.375 0-5l2-2z" fill="#D21E25"/>
  <path d="M28 39v5l-2-1c-2-.04-4-.043-6 0l1-3c2.477-.908 4.336-1 7-1z" fill="#E58180"/>
  <path d="M181 39l2 1-2 8h-4v-3l2-1a78.037 78.037 0 002-5z" fill="#D73F3E"/>
  <path d="M205 38h2v2h2v8h-2l-1-3h2v-3h-3v-4z" fill="#E06D63"/>
  <path d="M150 38h2v4l-7 1 1-3h4v-2z" fill="#D84642"/>
  <path d="M173 40v3h-6v-3c3.75-1.125 3.75-1.125 6 0z" fill="#E68385"/>
  <path d="M223 42c1.063 1.875 1.063 1.875 2 4l-1 2-7-1v-1l5-1 1-3z" fill="#D84142"/>
  <path d="M29 39l6 1v3h-5l-1-4z" fill="#E88F92"/>
  <path d="M191 45l4 1v2h-4v-3z" fill="#E06C64"/>
</svg>
